<svg width="8" height="8" viewBox="0 0 8 8" fill="none" xmlns="http://www.w3.org/2000/svg">
<g opacity="0.5">
<path d="M4.22977 4.36893C3.85221 4.36893 3.55016 4.23409 3.32362 3.9644C3.10787 3.68393 3 3.32255 3 2.88026C3 2.27616 3.16181 1.73139 3.48544 1.24595C3.81985 0.74973 4.32686 0.334412 5.00647 0L5.18447 0.258899C4.86084 0.453074 4.56419 0.728155 4.2945 1.08414C4.0356 1.42934 3.90615 1.77993 3.90615 2.13592C3.90615 2.23301 3.93312 2.31392 3.98706 2.37864C4.04099 2.43258 4.1219 2.45955 4.22977 2.45955C4.49946 2.45955 4.726 2.55663 4.90939 2.75081C5.10356 2.9342 5.20065 3.16073 5.20065 3.43042C5.20065 3.70011 5.10356 3.92664 4.90939 4.11003C4.726 4.28263 4.49946 4.36893 4.22977 4.36893ZM7.02913 4.36893C6.65156 4.36893 6.34951 4.23409 6.12298 3.9644C5.90723 3.68393 5.79935 3.32255 5.79935 2.88026C5.79935 2.27616 5.96116 1.73139 6.28479 1.24595C6.6192 0.74973 7.12621 0.334412 7.80583 0L7.98382 0.258899C7.66019 0.453074 7.36354 0.728155 7.09385 1.08414C6.83495 1.42934 6.7055 1.77993 6.7055 2.13592C6.7055 2.23301 6.73247 2.31392 6.78641 2.37864C6.84035 2.43258 6.92125 2.45955 7.02913 2.45955C7.29881 2.45955 7.52535 2.55663 7.70874 2.75081C7.90291 2.9342 8 3.16073 8 3.43042C8 3.70011 7.90291 3.92664 7.70874 4.11003C7.52535 4.28263 7.29881 4.36893 7.02913 4.36893Z" fill="white"/>
</g>
</svg>
