<svg width="8" height="8" viewBox="0 0 8 8" fill="none" xmlns="http://www.w3.org/2000/svg">
<g opacity="0.5">
<path d="M0.0161811 4.11003C0.339806 3.91586 0.631068 3.64617 0.889968 3.30097C1.15965 2.94498 1.2945 2.589 1.2945 2.23301C1.2945 2.13592 1.26753 2.06041 1.21359 2.00647C1.15965 1.94175 1.07875 1.90938 0.970874 1.90938C0.701187 1.90938 0.469256 1.81769 0.275081 1.6343C0.0916937 1.44013 0 1.2082 0 0.938511C0 0.668824 0.0916937 0.44768 0.275081 0.27508C0.469256 0.0916934 0.701187 0 0.970874 0C1.34844 0 1.64509 0.140237 1.86084 0.420711C2.08738 0.690399 2.20065 1.04639 2.20065 1.48867C2.20065 2.09277 2.03344 2.64293 1.69903 3.13916C1.3754 3.62459 0.873786 4.03452 0.194175 4.36893L0.0161811 4.11003ZM2.81553 4.11003C3.13916 3.91586 3.43042 3.64617 3.68932 3.30097C3.95901 2.94498 4.09385 2.589 4.09385 2.23301C4.09385 2.13592 4.06688 2.06041 4.01295 2.00647C3.95901 1.94175 3.8781 1.90938 3.77023 1.90938C3.50054 1.90938 3.26861 1.81769 3.07443 1.6343C2.89105 1.44013 2.79935 1.2082 2.79935 0.938511C2.79935 0.668824 2.89105 0.44768 3.07443 0.27508C3.26861 0.0916934 3.50054 0 3.77023 0C4.14779 0 4.44444 0.140237 4.66019 0.420711C4.88673 0.690399 5 1.04639 5 1.48867C5 2.09277 4.83279 2.64293 4.49838 3.13916C4.17476 3.62459 3.67314 4.03452 2.99353 4.36893L2.81553 4.11003Z" fill="white"/>
</g>
</svg>
