<svg width="140" height="49" viewBox="0 0 140 49" fill="none" xmlns="http://www.w3.org/2000/svg">
<path d="M3.33154 33.7091C3.6882 34.3414 4.07728 34.8926 4.49879 35.3628C4.93651 35.8329 5.41476 36.1977 5.93354 36.4571C6.45232 36.7164 7.01163 36.8461 7.61147 36.8461C8.30858 36.8461 8.87599 36.6678 9.31371 36.3112C9.75143 35.9545 9.97029 35.4681 9.97029 34.8521C9.97029 34.3171 9.83249 33.8875 9.55689 33.5632C9.2975 33.239 8.90031 32.9553 8.36532 32.7121C7.84654 32.4527 7.20617 32.1771 6.44421 31.8853C6.03892 31.7394 5.56877 31.5449 5.03378 31.3017C4.515 31.0423 4.02054 30.7181 3.5504 30.329C3.08025 29.9237 2.69117 29.4373 2.38314 28.8699C2.07512 28.2863 1.92111 27.5892 1.92111 26.7786C1.92111 25.8059 2.16428 24.971 2.65064 24.2738C3.15321 23.5605 3.826 23.0174 4.66902 22.6446C5.52824 22.2555 6.48474 22.0609 7.53851 22.0609C8.62471 22.0609 9.55689 22.2474 10.3351 22.6202C11.1294 22.9769 11.786 23.4389 12.3048 24.0064C12.8398 24.5576 13.2532 25.1331 13.545 25.7329L10.8214 27.2406C10.5944 26.8353 10.3188 26.4706 9.99461 26.1463C9.68659 25.8059 9.32992 25.5384 8.92463 25.3438C8.51933 25.1331 8.05729 25.0277 7.53851 25.0277C6.85762 25.0277 6.34694 25.1898 6.00649 25.5141C5.66604 25.8221 5.49582 26.1868 5.49582 26.6084C5.49582 27.0299 5.63362 27.4027 5.90922 27.727C6.18482 28.035 6.60633 28.3349 7.17375 28.6267C7.74116 28.9023 8.45448 29.186 9.31371 29.4779C9.86492 29.6724 10.3918 29.9156 10.8944 30.2074C11.4131 30.4992 11.8752 30.8559 12.2805 31.2774C12.702 31.6827 13.0262 32.169 13.2532 32.7364C13.4964 33.2876 13.618 33.928 13.618 34.6575C13.618 35.4843 13.4558 36.222 13.1316 36.8705C12.8074 37.5189 12.3615 38.0701 11.7941 38.5241C11.2267 38.9618 10.5863 39.2941 9.87302 39.5211C9.17591 39.7643 8.43827 39.8859 7.6601 39.8859C6.62254 39.8859 5.64983 39.6913 4.74197 39.3022C3.85032 38.8969 3.07215 38.3538 2.40746 37.6729C1.74277 36.992 1.224 36.2544 0.851123 35.46L3.33154 33.7091ZM17.596 31.9339V28.797H30.0954V31.9339H17.596ZM27.8824 22.4014H31.3599V39.4238H27.8824V22.4014ZM16.4531 22.4014H19.9305V39.4238H16.4531V22.4014ZM37.7232 30.9126C37.7232 31.9988 37.9501 32.9634 38.4041 33.8064C38.858 34.6494 39.4821 35.3141 40.2765 35.8005C41.0709 36.2868 41.995 36.53 43.0488 36.53C44.1025 36.53 45.0266 36.2868 45.821 35.8005C46.6154 35.3141 47.2314 34.6494 47.6691 33.8064C48.1231 32.9634 48.35 31.9988 48.35 30.9126C48.35 29.8264 48.1312 28.8618 47.6935 28.0188C47.2557 27.1758 46.6397 26.5111 45.8453 26.0247C45.0509 25.5384 44.1187 25.2952 43.0488 25.2952C41.995 25.2952 41.0709 25.5384 40.2765 26.0247C39.4821 26.5111 38.858 27.1758 38.4041 28.0188C37.9501 28.8618 37.7232 29.8264 37.7232 30.9126ZM34.0512 30.9126C34.0512 29.6157 34.2781 28.4322 34.7321 27.3622C35.186 26.276 35.8183 25.3357 36.6289 24.5413C37.4395 23.747 38.3878 23.139 39.474 22.7175C40.5764 22.2798 41.768 22.0609 43.0488 22.0609C44.3457 22.0609 45.5373 22.2798 46.6235 22.7175C47.7097 23.139 48.6581 23.747 49.4686 24.5413C50.2955 25.3357 50.9277 26.276 51.3654 27.3622C51.8194 28.4322 52.0463 29.6157 52.0463 30.9126C52.0463 32.1933 51.8194 33.3849 51.3654 34.4873C50.9277 35.5735 50.3036 36.5219 49.493 37.3325C48.6986 38.1431 47.7502 38.7754 46.6478 39.2293C45.5616 39.667 44.3619 39.8859 43.0488 39.8859C41.7356 39.8859 40.5278 39.667 39.4254 39.2293C38.3392 38.7754 37.3908 38.1431 36.5802 37.3325C35.7696 36.5219 35.1455 35.5735 34.7078 34.4873C34.27 33.3849 34.0512 32.1933 34.0512 30.9126ZM69.6104 32.9796L73.2581 22.4014H77.3435L70.1697 40.3722L64.8198 29.186L59.4456 40.3722L52.2962 22.4014H56.3815L60.0779 32.9796L64.8198 21.5503L69.6104 32.9796ZM81.7539 30.9126C81.7539 32.0312 82.0052 33.012 82.5078 33.8551C83.0266 34.6819 83.6994 35.3222 84.5262 35.7762C85.353 36.2139 86.2527 36.4327 87.2254 36.4327C88.036 36.4327 88.7575 36.3274 89.3897 36.1166C90.022 35.9059 90.5894 35.6221 91.092 35.2655C91.6107 34.9088 92.0566 34.5197 92.4294 34.0982V38.0134C91.7323 38.5646 90.9704 38.9942 90.1436 39.3022C89.333 39.6103 88.3035 39.7643 87.0552 39.7643C85.7583 39.7643 84.5505 39.5535 83.4319 39.132C82.3295 38.7105 81.3649 38.1026 80.538 37.3082C79.7275 36.5138 79.0952 35.5816 78.6413 34.5116C78.2035 33.4254 77.9847 32.2258 77.9847 30.9126C77.9847 29.5994 78.2035 28.4079 78.6413 27.3379C79.0952 26.2517 79.7275 25.3114 80.538 24.517C81.3649 23.7226 82.3295 23.1147 83.4319 22.6932C84.5505 22.2717 85.7583 22.0609 87.0552 22.0609C88.3035 22.0609 89.333 22.2149 90.1436 22.523C90.9704 22.831 91.7323 23.2606 92.4294 23.8118V27.727C92.0566 27.3055 91.6107 26.9164 91.092 26.5597C90.5894 26.2031 90.022 25.9194 89.3897 25.7086C88.7575 25.4978 88.036 25.3925 87.2254 25.3925C86.2527 25.3925 85.353 25.6194 84.5262 26.0734C83.6994 26.5111 83.0266 27.1433 82.5078 27.9701C82.0052 28.797 81.7539 29.7778 81.7539 30.9126ZM97.8922 35.5573L98.3056 32.8094H106.476L106.89 35.5573H97.8922ZM102.342 27.9215L99.789 33.7821L99.8619 34.5603L97.6247 39.4238H93.7095L102.342 21.4043L110.975 39.4238H107.036L104.847 34.7062L104.896 33.8307L102.342 27.9215ZM114.305 33.7091C114.662 34.3414 115.051 34.8926 115.472 35.3628C115.91 35.8329 116.388 36.1977 116.907 36.4571C117.426 36.7164 117.985 36.8461 118.585 36.8461C119.282 36.8461 119.85 36.6678 120.287 36.3112C120.725 35.9545 120.944 35.4681 120.944 34.8521C120.944 34.3171 120.806 33.8875 120.531 33.5632C120.271 33.239 119.874 32.9553 119.339 32.7121C118.82 32.4527 118.18 32.1771 117.418 31.8853C117.013 31.7394 116.542 31.5449 116.007 31.3017C115.489 31.0423 114.994 30.7181 114.524 30.329C114.054 29.9237 113.665 29.4373 113.357 28.8699C113.049 28.2863 112.895 27.5892 112.895 26.7786C112.895 25.8059 113.138 24.971 113.624 24.2738C114.127 23.5605 114.8 23.0174 115.643 22.6446C116.502 22.2555 117.458 22.0609 118.512 22.0609C119.598 22.0609 120.531 22.2474 121.309 22.6202C122.103 22.9769 122.76 23.4389 123.278 24.0064C123.813 24.5576 124.227 25.1331 124.519 25.7329L121.795 27.2406C121.568 26.8353 121.293 26.4706 120.968 26.1463C120.66 25.8059 120.304 25.5384 119.898 25.3438C119.493 25.1331 119.031 25.0277 118.512 25.0277C117.831 25.0277 117.321 25.1898 116.98 25.5141C116.64 25.8221 116.469 26.1868 116.469 26.6084C116.469 27.0299 116.607 27.4027 116.883 27.727C117.158 28.035 117.58 28.3349 118.147 28.6267C118.715 28.9023 119.428 29.186 120.287 29.4779C120.839 29.6724 121.365 29.9156 121.868 30.2074C122.387 30.4992 122.849 30.8559 123.254 31.2774C123.676 31.6827 124 32.169 124.227 32.7364C124.47 33.2876 124.592 33.928 124.592 34.6575C124.592 35.4843 124.429 36.222 124.105 36.8705C123.781 37.5189 123.335 38.0701 122.768 38.5241C122.2 38.9618 121.56 39.2941 120.847 39.5211C120.15 39.7643 119.412 39.8859 118.634 39.8859C117.596 39.8859 116.623 39.6913 115.716 39.3022C114.824 38.8969 114.046 38.3538 113.381 37.6729C112.716 36.992 112.198 36.2544 111.825 35.46L114.305 33.7091ZM129.664 39.4238V36.4814H138.248V39.4238H129.664ZM129.664 25.3438V22.4014H138.248V25.3438H129.664ZM129.664 31.8367V28.9429H137.762V31.8367H129.664ZM127.427 22.4014H130.783V39.4238H127.427V22.4014Z" fill="white"/>
<path d="M56.6903 6.78753V5.27288H63.4715V6.78753H60.9008V15H59.2472V6.78753H56.6903ZM66.7079 10.5394V9.02477H73.642V10.5394H66.7079ZM72.5859 5.27288H74.2256V15H72.5859V5.27288ZM66.0548 5.27288H67.6946V15H66.0548V5.27288ZM78.7993 15V13.5548H83.7046V15H78.7993ZM78.7993 6.71805V5.27288H83.7046V6.71805H78.7993ZM78.7993 10.4977V9.08035H83.4266V10.4977H78.7993ZM77.7849 5.27288H79.3968V15H77.7849V5.27288Z" fill="white"/>
</svg>
