<svg width="659" height="76" viewBox="0 0 659 76" fill="none" xmlns="http://www.w3.org/2000/svg">
<path d="M476.351 0C486.889 1.9593e-07 494.627 2.84224 502.807 6.33984H502.954V17.707L502.659 17.4883C491.016 10.7848 481.141 9.83697 476.277 9.83691C462.055 9.83691 447.316 20.4026 447.315 38.0361C447.315 54.7226 459.549 66.3086 477.235 66.3086C482.688 66.3085 486.521 65.2156 493.374 63.1025V48.0918H479.004V38.4736H504.501V69.9521H504.354C497.87 72.8668 488.879 76 476.793 76C463.676 76 452.696 71.7005 445.326 63.6123C439.136 56.9814 435.672 47.8732 435.672 38.6191C435.672 19.8925 449.895 0 476.351 0ZM23.3604 0C29.7717 0 36.0365 1.82173 41.5635 5.31934H41.71V17.8525L41.3418 17.5605C35.7413 12.533 29.6249 9.91027 23.0664 9.91016C15.9182 9.91016 10.7588 13.4076 10.7588 18.2168C10.7588 24.0916 15.0991 26.8279 27.6035 33.6914L30.3613 35.0488C34.7092 37.5263 38.1736 40.1493 40.6055 43.3555C43.5531 46.7801 44.9531 50.9337 44.9531 55.6699C44.9531 67.62 35.4466 75.9266 21.9609 75.9268C14.2232 75.9268 6.85367 73.5952 0.442383 69.1504V55.0146L0.737305 55.4512C3.02178 58.0744 9.94852 66.163 21.8867 66.1631C27.6348 66.1631 33.8252 62.5923 33.8252 56.6172C33.825 50.6422 27.3403 46.1971 23.582 44.084C11.2753 37.1617 7.51676 35.0489 3.97949 30.8955C1.32657 27.6166 3.95918e-05 24.0461 0 19.7471C0 8.16138 9.65362 0.000165645 23.3604 0ZM325.298 0C331.635 0 337.974 1.82173 343.501 5.31934H343.647V17.8525L343.279 17.5605C337.679 12.5329 331.488 9.91016 324.93 9.91016C317.855 9.91019 312.696 13.4076 312.696 18.2168C312.696 24.0916 317.037 26.8279 329.541 33.6914L332.078 34.9756C336.5 37.3802 339.816 40.0771 342.321 43.2832C345.195 46.7079 346.669 50.8614 346.669 55.5977C346.669 61.3539 344.459 66.5276 340.479 70.1709C336.205 73.9599 330.457 75.9267 323.604 75.9268C316.013 75.9268 308.644 73.5952 302.232 69.1504V55.0146L302.527 55.4512C304.886 58.0744 311.813 66.1631 323.604 66.1631C329.499 66.163 335.689 62.5922 335.689 56.6172C335.689 50.6422 329.277 46.1971 325.445 44.084C313.139 37.1619 309.381 35.0488 305.917 30.8955C303.19 27.6166 301.938 24.0461 301.938 19.7471C301.938 8.16138 311.517 0.000158016 325.298 0ZM81.3701 32.8271H123.08V0.984375H134.281V75.0166H123.08V42.9561H81.3701V75.0166H70.2422V0.984375H81.3701V32.8271ZM265.136 57.748V0.984375H275.821V75.0166H266.315L266.241 74.9443L216.498 18.6182V75.0166H205.887V0.984375H214.951L265.136 57.748ZM414.908 10.7432H383.146V32.8223H413.803V42.5859H383.146V65.1016H415.866V75.0117H371.945V0.90625H414.908V10.7432ZM657.713 0.90625V10.7432H625.951V32.8223H656.607V42.5859H625.951V65.1016H658.671V75.0117H614.75V0.90625H657.713ZM596.532 75.001H585.036V74.8555L575.087 53.2139H543.473L534.04 75.001H522.691V74.71L554.969 0.53125H562.78L596.532 75.001ZM175.639 74.9697H164.438V0.9375H175.639V74.9697ZM547.895 43.4502H570.519L558.728 17.4365L547.895 43.4502Z" fill="white"/>
</svg>
